<svg xmlns="http://www.w3.org/2000/svg" width="59.409" height="37.635" viewBox="0 0 59.409 37.635">
  <g id="Grupo_837" data-name="Grupo 837" transform="translate(0 0)">
    <path id="Trazado_14602" data-name="Trazado 14602" d="M2463.512,2989.965a10.249,10.249,0,0,0,.872,1.13,77.709,77.709,0,0,1,6.885,8.8.683.683,0,0,0,.5.262c2.927-.036,5.854-.093,8.781-.147a2.87,2.87,0,0,0,.322-.051l-1.752-1.455a2.554,2.554,0,0,0,.7-.048c.213-.088.512-.234.557-.411a3,3,0,0,0,.062-1.225c-.087-.49-.351-.632-.854-.611-.91.038-1.819.091-2.729.131-.137.006-.313.033-.406-.036-.474-.356-.927-.74-1.466-1.179.686-.032,1.259-.079,1.831-.078a.726.726,0,0,0,.8-.648,2.3,2.3,0,0,0,.005-.869c-.127-.623-.373-.784-1-.752-1.3.065-2.6.139-3.9.182a1.114,1.114,0,0,1-.647-.2c-.8-.585-1.6-1.18-2.368-1.812a7.373,7.373,0,0,0-5.837-1.7C2463.323,2989.317,2463.21,2989.511,2463.512,2989.965Z" transform="translate(-2447.423 -2989.185)" fill="#383838"/>
    <path id="Trazado_14603" data-name="Trazado 14603" d="M2427.23,3031.436c1.1-.644,1.272-1.252.754-2.247a3.256,3.256,0,0,0-.188-.329,9.734,9.734,0,0,0-7.521-4.656c-2.343-.177-4.7-.179-7.054-.166-3.783.021-7.566.111-11.349.186-3.376.068-6.752.153-10.127.232-2.759.065-5.519.167-8.277.178a8.769,8.769,0,0,1-2.687-.373,7.076,7.076,0,0,1-4.3-4.2c-.339-.743-.665-1.346-1.036-2.061a4.355,4.355,0,0,0-.274-.473,1.75,1.75,0,0,0-2.136-.862,1.57,1.57,0,0,0-.411.2s0-.01,0-.014l-.04.042a1.725,1.725,0,0,0-.673,1.573.48.48,0,0,1-.4.07c.007.137.006.233.017.329.206,1.767.371,3.541.638,5.3a2.82,2.82,0,0,1-1.029,2.8c-.539.445-1.145.807-1.692,1.243-.246.2-.589.48-.59.728,0,.4.474.474.806.533.95.171,1.907.309,2.864.437a2.324,2.324,0,0,1,1.325.544,5.293,5.293,0,0,0,1.319.807,16.926,16.926,0,0,0,5.683,1.446c2.471.2,16.681-.482,16.591-.059-.113.531-2.479,3.429-2.989,4.249q-2.818,4.531-5.635,9.063c-.568.916-1.138,1.832-1.663,2.772-.272.487-.082.817.455.847a7.744,7.744,0,0,0,5.989-1.925c1.1-1.019,2.175-2.065,3.281-3.076a1.187,1.187,0,0,1,.692-.286c1.358-.065,2.717-.088,4.075-.139a.776.776,0,0,0,.457-.151,1.6,1.6,0,0,0-.061-1.968.871.871,0,0,0-.506-.125c-.6,0-1.193.021-1.92.037.429-.421.748-.769,1.107-1.069a1.125,1.125,0,0,1,.616-.261c1.063-.053,2.128-.081,3.192-.09a.632.632,0,0,0,.663-.463,1.815,1.815,0,0,0-.033-1.392.634.634,0,0,0-.7-.419c-.314.029-.633.015-.986.021a.852.852,0,0,1,.086-.162q2.64-2.562,5.287-5.115a.687.687,0,0,1,.412-.137c2.224-.117,4.45-.2,6.673-.342q3.039-.2,6.075-.437c.9-.07,5.214-.643,5.214-.643h0" transform="translate(-2368.854 -3011.964)" fill="#383838"/>
  </g>
</svg>
