<svg id="Grupo_766" data-name="Grupo 766" xmlns="http://www.w3.org/2000/svg" width="34.79" height="25.148" viewBox="0 0 34.79 25.148">
  <path id="Trazado_372" data-name="Trazado 372" d="M205.812,565.478q1.954,0,3.907,0c.522,0,.7.17.7.685q0,1.7,0,3.4c0,.491-.186.676-.681.676q-3.958,0-7.917,0c-.481,0-.652-.175-.653-.656q0-1.732,0-3.463c0-.464.171-.635.634-.636Q203.808,565.475,205.812,565.478Z" transform="translate(-199.345 -554.61)" fill="#0c213c"/>
  <path id="Trazado_373" data-name="Trazado 373" d="M204.143,562.519c0-.532.005-1.063,0-1.595,0-.271.111-.4.383-.4q1.24.006,2.479,0c.267,0,.4.113.4.382q0,1.6,0,3.19c0,.259-.113.4-.39.4-.826,0-1.652-.006-2.479,0-.3,0-.4-.137-.395-.417C204.149,563.56,204.142,563.04,204.143,562.519Z" transform="translate(-199.325 -554.644)" fill="#0c213c"/>
  <path id="Trazado_374" data-name="Trazado 374" d="M213.306,564.111c0-.44,0-.881,0-1.322,0-.232.069-.355.33-.352.916.009,1.831.007,2.747,0,.235,0,.331.106.331.325q0,1.373,0,2.745c0,.241-.11.338-.355.336q-1.356-.012-2.713,0c-.252,0-.345-.1-.342-.342C213.311,565.039,213.306,564.575,213.306,564.111Z" transform="translate(-199.263 -554.631)" fill="#0c213c"/>
  <path id="Trazado_375" data-name="Trazado 375" d="M219.723,565.841c-.441,0-.882-.007-1.323,0-.237.005-.357-.068-.355-.326q.011-1.374,0-2.747c0-.252.1-.335.346-.333q1.358.012,2.715,0c.247,0,.35.1.349.342q0,1.356,0,2.713c0,.266-.121.357-.376.351C220.628,565.833,220.176,565.841,219.723,565.841Z" transform="translate(-199.23 -554.631)" fill="#0c213c"/>
  <path id="Trazado_376" data-name="Trazado 376" d="M219.738,566.872c.453,0,.905.006,1.357,0,.259-.005.364.1.362.362q-.012,1.34,0,2.678c0,.259-.106.372-.362.37q-1.358,0-2.713,0c-.243,0-.34-.109-.338-.353q.012-1.356,0-2.711c0-.248.094-.348.338-.344C218.834,566.877,219.286,566.872,219.738,566.872Z" transform="translate(-199.23 -554.601)" fill="#0c213c"/>
  <path id="Trazado_377" data-name="Trazado 377" d="M222.784,568.548c0-.441.008-.882,0-1.322-.007-.24.072-.357.326-.356q1.373.008,2.747,0c.246,0,.338.1.336.349q-.012,1.356,0,2.711c0,.251-.111.348-.346.348q-1.356,0-2.713,0c-.262,0-.358-.116-.351-.375C222.794,569.452,222.784,569,222.784,568.548Z" transform="translate(-199.198 -554.601)" fill="#0c213c"/>
  <path id="Trazado_378" data-name="Trazado 378" d="M213.306,568.528c0-.43.007-.86,0-1.29-.006-.255.086-.372.354-.369q1.341.012,2.684,0c.283,0,.379.119.377.388q-.012,1.324,0,2.648c0,.281-.125.38-.394.378q-1.308-.011-2.616,0c-.285,0-.416-.1-.406-.4C213.317,569.434,213.306,568.981,213.306,568.528Z" transform="translate(-199.263 -554.601)" fill="#0c213c"/>
  <path id="Trazado_379" data-name="Trazado 379" d="M205.335,558.2v-2.491c0-.181,0-.362,0-.544.011-.269.128-.461.42-.479.256-.016.429.181.431.5.006.871,0,1.743,0,2.615v.421c.263,0,.507.007.75,0,.31-.012.456.118.464.438.023.9.025.907-.878.907-.634,0-1.269,0-1.9,0-.4,0-.483-.081-.483-.471,0-.857-.106-.89.862-.873C205.1,558.218,205.2,558.206,205.335,558.2Z" transform="translate(-199.325 -554.683)" fill="#0c213c"/>
  <path id="Trazado_380" data-name="Trazado 380" d="M233.778,570.334c-1.564-.007-3.129.037-4.691-.024a1.419,1.419,0,0,0-1.5.756.575.575,0,0,1-.583.3q-6.8-.014-13.6-.007H199.783c-.476,0-.5.041-.323.486q1.527,3.769,3.048,7.539a.458.458,0,0,0,.5.34q12.577-.011,25.153,0a.533.533,0,0,0,.513-.295q2.671-4.331,5.356-8.656a1.737,1.737,0,0,0,.119-.337A1.4,1.4,0,0,0,233.778,570.334Zm-11.05,4.559a.692.692,0,1,1,.687-.7A.713.713,0,0,1,222.728,574.893Zm3.395,0a.692.692,0,0,1-.684-.724.692.692,0,0,1,1.382.045A.7.7,0,0,1,226.123,574.893Z" transform="translate(-199.357 -554.577)" fill="#0c213c"/>
</svg>
