<svg xmlns="http://www.w3.org/2000/svg" width="78.443" height="66.684" viewBox="0 0 78.443 66.684">
  <g id="Grupo_845" data-name="Grupo 845" transform="translate(0 0)">
    <path id="Trazado_14610" data-name="Trazado 14610" d="M522.475,864.6h3.687c.426,0,.853-.013,1.277.008a1.485,1.485,0,0,1,1.566,1.381q.012,6.941,0,13.881a1.506,1.506,0,0,1-1.7,1.412q-6.415.007-12.83,0c-1.124,0-1.8-.557-1.814-1.519-.018-1.2-.012-2.392,0-3.588,0-.3-.059-.461-.481-.46-4.073.011-8.146.007-12.219.009-.09,0-.18.018-.324.034-.012.172-.034.34-.035.508,0,1.149,0,2.3,0,3.447-.007,1.023-.655,1.568-1.859,1.569q-7.943,0-15.885,0c-1.232,0-1.865-.546-1.868-1.608,0-1.133-.02-2.267.009-3.4.011-.414-.1-.568-.633-.565q-5.915.03-11.83,0c-.511,0-.621.146-.612.543.026,1.117.013,2.235.007,3.352-.006,1.145-.632,1.676-1.966,1.676q-6.249,0-12.5,0c-1.26,0-1.9-.549-1.9-1.631q0-6.728,0-13.456c0-1.042.65-1.591,1.89-1.6,1.333,0,2.667-.024,4,.009.551.014.666-.145.666-.587q-.023-11.166-.011-22.332c0-.189,0-.378,0-.567.024-.979.65-1.516,1.8-1.519,2.536-.007,5.073,0,7.609,0H473.4c.014-.243.034-.441.034-.638,0-7.538-.005-15.077.02-22.615a2.365,2.365,0,0,1,.431-1.271,1.644,1.644,0,0,1,1.428-.479q9,.011,18,0h10.831c1.423,0,2.011.5,2.011,1.726q0,11.284,0,22.568c0,.807-.083.7.835.7q6.748.005,13.5,0c1.413,0,1.985.484,1.985,1.69q0,11.307,0,22.615Zm-32.633,2.827h-.666q-17.355-.018-34.711-.043c-.482,0-.638.112-.636.532q.027,5.028,0,10.056c0,.41.137.544.629.542q4.3-.025,8.609,0c.436,0,.581-.106.574-.48-.022-1.164-.016-2.329-.005-3.493.01-1.06.647-1.594,1.891-1.595q7.915,0,15.829,0c1.3,0,1.888.506,1.895,1.623.007,1.149.015,2.3-.006,3.446-.007.362.116.5.563.5q6-.017,12,0c.425,0,.538-.133.532-.472-.018-1.149-.01-2.3-.005-3.446s.6-1.648,1.929-1.648q7.859,0,15.718,0c1.373,0,1.981.525,1.984,1.71,0,1.117.018,2.235-.008,3.352-.009.395.142.509.6.507q4.276-.023,8.553,0c.517,0,.658-.134.655-.565q-.029-4.981,0-9.961c0-.483-.157-.609-.716-.607q-10.829.04-21.659.044Q496.617,867.433,489.842,867.427Zm9.751-25h-.626c-2.277,0-4.554.014-6.831-.01-.539-.006-.674.132-.673.581q.025,10.528.012,21.056v.509h27.714c.009-.116.021-.193.021-.269q0-10.741.008-21.481c0-.329-.117-.434-.5-.431-1.8.014-3.592.02-5.387,0-.5-.006-.667.112-.661.554.026,2.061.016,4.123.009,6.184,0,1.078-.606,1.594-1.871,1.6q-4.666.009-9.331,0c-1.258,0-1.875-.533-1.878-1.6,0-2.03,0-4.06,0-6.09ZM480,842.456v.55q0,3,0,6c0,1.22-.577,1.708-2.025,1.709q-4.526,0-9.053,0c-1.441,0-2-.485-2-1.725,0-2-.016-4,.01-6,.006-.462-.118-.63-.7-.619-1.721.034-3.443.029-5.165,0-.525-.008-.69.108-.689.571q.025,10.551.012,21.1v.512h27.707v-22.1Zm-3.254-2.878c.264.011.428.025.592.025h24.934c.056,0,.112,0,.166,0,.311.029.434-.086.423-.352-.016-.377,0-.755,0-1.133q0-10.078.012-20.157c0-.48-.153-.612-.717-.6-1.739.032-3.48.025-5.22,0-.471-.006-.6.13-.592.514.018,2.03.01,4.06.008,6.09,0,1.253-.573,1.738-2.054,1.739q-4.5,0-9,0c-1.479,0-2.056-.49-2.057-1.741,0-2.03-.011-4.06.008-6.09,0-.384-.117-.518-.589-.513-1.721.022-3.443.008-5.164.009-.748,0-.749,0-.749.643q0,10.479,0,20.959Zm32.661,8.358c0-1.8.006-3.524-.018-5.249,0-.089-.254-.251-.391-.252-1.9-.008-3.808.008-5.712.012-.268,0-.412.065-.411.319.006,1.618,0,3.237.018,4.856,0,.106.217.3.335.3C505.258,847.942,507.289,847.936,509.407,847.936Zm-39.186,0c2.1,0,4.125,0,6.154,0,.367,0,.352-.208.352-.417,0-1.539-.009-3.078.008-4.617,0-.347-.125-.463-.54-.461-1.81.008-3.621-.011-5.431-.017-.175,0-.35.022-.542.035Zm22.821-25.026c0-1.76,0-3.47,0-5.181,0-.306-.219-.309-.476-.309-1.83,0-3.661.009-5.491-.006-.415,0-.539.114-.535.461.018,1.556.007,3.112.01,4.668a2.656,2.656,0,0,0,.052.367Z" transform="translate(-450.568 -814.601)" fill="#383838"/>
  </g>
</svg>
