<svg xmlns="http://www.w3.org/2000/svg" width="51.22" height="32.297" viewBox="0 0 51.22 32.297">
  <g id="Grupo_848" data-name="Grupo 848" transform="translate(-3167.355 -2777.678)">
    <path id="Trazado_14614" data-name="Trazado 14614" d="M3181.706,2798.514H3168.5c-.57,0-.66-.09-.66-.664q0-9.131,0-18.262a1.759,1.759,0,0,1,1.9-1.9q12.063,0,24.126-.011a1.711,1.711,0,0,1,1.761,1.747c-.017,6.133-.008,12.267-.009,18.4,0,.538-.159.689-.706.689Z" transform="translate(-0.416 0)" fill="#383838"/>
    <path id="Trazado_14615" data-name="Trazado 14615" d="M3316.014,2821.436c.244,0,.438,0,.632,0a.636.636,0,0,1,.71.673c.013.681.014,1.363,0,2.044a.728.728,0,0,1-.744.755c-1.248.015-2.5.01-3.744,0a.325.325,0,0,1-.226-.211,6.511,6.511,0,0,0-12.763-.373c-.042.179-.07.361-.11.567h-16.1a6.823,6.823,0,0,0-1.591-3.442h14.249v-.469c0-5.764.021-11.528-.007-17.292a1.689,1.689,0,0,1,1.841-1.788c3.395.1,6.791.138,10.186.214a2.68,2.68,0,0,1,2.222,1.144q2.134,2.965,4.259,5.937a6.6,6.6,0,0,1,1.19,3.907q.007,3.933,0,7.866Zm-10.549-10.726c1.951,0,3.9,0,5.854-.008a.551.551,0,0,0,.4-.177.462.462,0,0,0-.066-.4q-1.539-2.279-3.1-4.544a1.4,1.4,0,0,0-1.232-.64q-3.654.006-7.309,0a.936.936,0,0,0-1.046,1.045q0,1.991,0,3.982c0,.568.169.735.747.736Zm-5.142,1.238c-.322,0-.645.005-.967,0-.265-.005-.435.123-.44.376s.162.394.425.394h1.9c.256,0,.431-.108.433-.38,0-.292-.18-.4-.453-.391C3300.922,2811.953,3300.623,2811.948,3300.323,2811.948Z" transform="translate(-98.79 -20.858)" fill="#383838"/>
    <path id="Trazado_14616" data-name="Trazado 14616" d="M3215.55,2947.408a5.07,5.07,0,1,1,5.065-5.046A5.081,5.081,0,0,1,3215.55,2947.408Zm2.157-5.045a2.142,2.142,0,0,0-2.153-2.188,2.17,2.17,0,0,0,0,4.34A2.139,2.139,0,0,0,3217.707,2942.364Z" transform="translate(-37.136 -137.433)" fill="#383838"/>
    <path id="Trazado_14617" data-name="Trazado 14617" d="M3424.494,2947.408a5.07,5.07,0,0,1,.052-10.14,5.07,5.07,0,1,1-.052,10.14Zm2.2-5.027a2.168,2.168,0,1,0-2.184,2.134A2.18,2.18,0,0,0,3426.7,2942.382Z" transform="translate(-217.097 -137.433)" fill="#383838"/>
    <path id="Trazado_14618" data-name="Trazado 14618" d="M3173.414,2942.627c-.385.751-.785,1.483-1.136,2.238a4.336,4.336,0,0,0-.257,1c-.036.183-.107.247-.295.246-1.166-.008-2.332,0-3.5-.008a.828.828,0,0,1-.862-.85c-.017-.645-.016-1.292,0-1.938a.64.64,0,0,1,.639-.682C3169.83,2942.622,3171.652,2942.627,3173.414,2942.627Z" transform="translate(0 -142.047)" fill="#383838"/>
  </g>
</svg>
