<svg id="Grupo_832" data-name="Grupo 832" xmlns="http://www.w3.org/2000/svg" width="24.846" height="25.604" viewBox="0 0 24.846 25.604">
  <path id="Trazado_14549" data-name="Trazado 14549" d="M503.735,240.871l-5.05,5.548-5.081-5.583c.1,0,.158-.009.216-.009h1.795c.214,0,.214,0,.214-.21v-5.539a.54.54,0,0,1,.471-.6.67.67,0,0,1,.116,0h4.6a.535.535,0,0,1,.525.545V240.6c0,.223,0,.223.23.223h1.947Z" transform="translate(-478.888 -220.814)" fill="#3d3c3c"/>
  <path id="Trazado_14550" data-name="Trazado 14550" d="M507.58,241.184h-1.4v-3.13c0-.141-.04-.174-.176-.174-1.36,0-2.721.016-4.083,0a3.856,3.856,0,0,1-3.181-1.569,3.434,3.434,0,0,1-.721-2.114v-4.244c0-.174-.047-.2-.205-.2H491.3a1.567,1.567,0,0,0-1.529.976,2.228,2.228,0,0,0-.109.672c-.018.4.049.342-.348.35H488.4c-.074,0-.132,0-.136-.109a2.988,2.988,0,0,1,2.679-3.273,2.7,2.7,0,0,1,.33-.013h8.423a.353.353,0,0,1,.219.094q3.54,3.637,7.075,7.28c.174.174.35.348.525.54a.288.288,0,0,1,.076.174v4.63A.339.339,0,0,1,507.58,241.184Zm-8.05-11.129c0,.087-.009.121-.009.156V234.1a2.127,2.127,0,0,0,.049.476,2.352,2.352,0,0,0,2.3,1.8c1.205.011,2.411,0,3.619,0a1.165,1.165,0,0,0,.158-.02Z" transform="translate(-485.493 -228.354)" fill="#3d3c3c"/>
  <path id="Trazado_14551" data-name="Trazado 14551" d="M492.8,237.244h-5.03a.714.714,0,0,1-.757-.667.518.518,0,0,1,0-.085v-5.572a.72.72,0,0,1,.69-.752.354.354,0,0,1,.069,0h10.01a.734.734,0,0,1,.819.641.606.606,0,0,1,0,.181V236.4a.733.733,0,0,1-.6.844.687.687,0,0,1-.234,0H492.8Zm-1.418-3.534v2.031c0,.123.036.174.163.174.464-.009.926,0,1.4-.022a1.429,1.429,0,0,0,1.342-.969,3.52,3.52,0,0,0,.174-1.9,1.962,1.962,0,0,0-.386-.935,1.546,1.546,0,0,0-1.183-.551c-.438-.029-.873-.013-1.313-.029-.15,0-.19.045-.19.19,0,.667,0,1.339,0,2.014Zm-3.422-.011h0v2.016c0,.159.051.208.2.2a5.835,5.835,0,0,1,.625,0c.136,0,.174-.047.174-.174v-1.223c0-.232,0-.225.239-.232s.438-.016.654-.036a1.1,1.1,0,0,0,1.025-.906,2.3,2.3,0,0,0,.042-.525,1.184,1.184,0,0,0-1.221-1.295c-.511-.013-1.025,0-1.536-.022-.174,0-.205.058-.2.212,0,.663,0,1.326,0,1.987Zm7.171,0h0v2.049c0,.112.031.174.154.165.232-.007.462-.007.688,0,.12,0,.156-.045.154-.161v-1.411c0-.132.04-.174.174-.174h.962c.121,0,.163-.038.156-.156v-.449c0-.15-.047-.174-.176-.174h-.96c-.118,0-.159-.042-.159-.159,0-.263.009-.525,0-.786,0-.152.051-.192.194-.19h1.315c.123,0,.174-.04.174-.176a3.184,3.184,0,0,1,0-.415c.011-.145-.042-.192-.19-.192H495.35c-.176,0-.205.06-.2.214-.013.69-.018,1.353-.018,2.014Z" transform="translate(-487.012 -226.126)" fill="#3d3c3c"/>
  <path id="Trazado_14552" data-name="Trazado 14552" d="M488.252,233.633h1.4v.277c0,2.92.009,5.84,0,8.76a1.58,1.58,0,0,0,1.29,1.6,2.163,2.163,0,0,0,.4.029h9.6a.5.5,0,0,1,.413.174c.348.4.714.792,1.109,1.223H491.313a3.006,3.006,0,0,1-2.851-1.862,2.723,2.723,0,0,1-.2-1.031v-9Z" transform="translate(-485.484 -221.847)" fill="#3d3c3c"/>
  <path id="Trazado_14553" data-name="Trazado 14553" d="M498.9,236.192v1.264c0,.025-.045.06-.076.074a.314.314,0,0,1-.112,0h-8.8c-.214,0-.214,0-.214-.217v-.96c0-.138.045-.174.174-.174h7.316Z" transform="translate(-483.696 -218.71)" fill="#3d3c3c"/>
  <path id="Trazado_14554" data-name="Trazado 14554" d="M498.9,236.472h-9.2v-1.183c0-.109.033-.156.147-.147h8.838c.212,0,.212,0,.212.205Z" transform="translate(-483.692 -219.99)" fill="#3d3c3c"/>
  <path id="Trazado_14555" data-name="Trazado 14555" d="M488.7,235.418V234.2c0-.118.083-.1.156-.1h9.03v1.308Z" transform="translate(-484.926 -221.275)" fill="#3d3c3c"/>
  <path id="Trazado_14556" data-name="Trazado 14556" d="M489.415,232.542v-1.281c0-.112.036-.147.147-.15a.739.739,0,0,1,.846.609v.009a3.109,3.109,0,0,1-.018,1.661.735.735,0,0,1-.8.6c-.147,0-.174-.047-.174-.174v-1.264Z" transform="translate(-484.051 -224.967)" fill="#3d3c3c"/>
  <path id="Trazado_14557" data-name="Trazado 14557" d="M488.177,231.09c.471,0,.67.241.623.734a.61.61,0,0,1-.851.542c-.033-.011-.062-.08-.065-.123v-.993c0-.13.049-.174.174-.161A1.064,1.064,0,0,0,488.177,231.09Z" transform="translate(-485.938 -224.984)" fill="#3d3c3c"/>
</svg>
