<svg xmlns="http://www.w3.org/2000/svg" width="21.629" height="21.584" viewBox="0 0 21.629 21.584">
  <g id="Grupo_859" data-name="Grupo 859" transform="translate(-149.073 -707.718)">
    <g id="Grupo_858" data-name="Grupo 858" transform="translate(149.573 708.218)">
      <path id="Trazado_14625" data-name="Trazado 14625" d="M259.983,411.854a2.558,2.558,0,0,1,1.827,4.359c-.913.923-1.834,1.838-2.752,2.756q-3.246,3.247-6.49,6.5a.814.814,0,0,1-.465.243c-1.194.2-2.385.412-3.578.619-.358.062-.51-.088-.449-.445.213-1.228.425-2.457.646-3.683a.585.585,0,0,1,.155-.29q2.984-2.995,5.976-5.982,1.672-1.672,3.346-3.343A2.524,2.524,0,0,1,259.983,411.854Zm-2.911,2.788-7.548,7.546,2.684,2.685,7.548-7.548Zm.455-.533,2.745,2.753c.367-.365.757-.732,1.123-1.122a1.935,1.935,0,0,0-2.785-2.686c-.216.214-.428.431-.645.644C257.815,413.844,257.659,413.985,257.527,414.109Zm-8.776,11.544,2.756-.476-2.279-2.281Z" transform="translate(-241.965 -411.854)" fill="#3d3c3c" stroke="#3d3c3c" stroke-width="1"/>
      <path id="Trazado_14626" data-name="Trazado 14626" d="M149.575,459.074q0-3.509,0-7.018a2.041,2.041,0,0,1,1.59-2.036,2.434,2.434,0,0,1,.521-.054q2.4-.006,4.792,0a.4.4,0,0,1,.277.092.453.453,0,0,1,.084.3.248.248,0,0,1-.234.213,1.136,1.136,0,0,1-.169.008h-4.7a1.451,1.451,0,0,0-1.541,1.538q0,6.964,0,13.928a1.442,1.442,0,0,0,1.5,1.514q7,0,14,0a1.442,1.442,0,0,0,1.474-1.481q0-2.334,0-4.668c0-.077,0-.155,0-.232a.3.3,0,0,1,.31-.283.308.308,0,0,1,.305.29c0,.051,0,.1,0,.155q0,2.35,0,4.7a2.052,2.052,0,0,1-2.14,2.142H151.7a2.036,2.036,0,0,1-1.8-.952,2.087,2.087,0,0,1-.325-1.19q0-3.486,0-6.971Z" transform="translate(-149.573 -447.603)" fill="#3d3c3c" stroke="#3d3c3c" stroke-width="1"/>
      <path id="Trazado_14627" data-name="Trazado 14627" d="M259.177,592.964l.477-2.757,2.279,2.281Z" transform="translate(-252.391 -579.165)" fill="#3d3c3c" stroke="#3d3c3c" stroke-width="1"/>
    </g>
  </g>
</svg>
