<svg xmlns="http://www.w3.org/2000/svg" width="57.8" height="57.786" viewBox="0 0 57.8 57.786">
  <g id="Grupo_857" data-name="Grupo 857" transform="translate(-325.35 -443.062)">
    <path id="Trazado_14623" data-name="Trazado 14623" d="M354.226,500.348A28.394,28.394,0,1,1,382.65,472.21,28.35,28.35,0,0,1,354.226,500.348ZM373.2,490.2c4.323-3.344,9.409-13.523,6.948-24.32-2.569-11.273-13.3-20.25-24.964-20.473a26.65,26.65,0,0,0-26.706,20.052c-2.722,10.522,1.968,20.781,6.809,24.762a18.251,18.251,0,0,1,13.161-11.83c-3.206-2.22-5.176-4.952-5.6-8.6a11.074,11.074,0,0,1,3.2-9.476,11.4,11.4,0,0,1,15.392-.912,10.785,10.785,0,0,1,4.1,6.893c.837,5.111-1.188,9.034-5.436,12.1A18.384,18.384,0,0,1,373.2,490.2ZM354.263,479.85c-.684,0-1.368-.012-2.052,0a16.194,16.194,0,0,0-15.15,11.043,1.359,1.359,0,0,0,.532,1.744,25.92,25.92,0,0,0,11.5,5.359,26.182,26.182,0,0,0,21.948-5.477,1.18,1.18,0,0,0,.436-1.5,16.108,16.108,0,0,0-6.292-8.367A17.082,17.082,0,0,0,354.263,479.85Zm9.64-11.364A9.654,9.654,0,1,0,354.131,478,9.708,9.708,0,0,0,363.9,468.486Z" fill="#fff" stroke="#fff" stroke-width="1"/>
  </g>
</svg>
