<svg id="Grupo_840" data-name="Grupo 840" xmlns="http://www.w3.org/2000/svg" width="66.684" height="66.684" viewBox="0 0 66.684 66.684">
  <g id="Grupo_839" data-name="Grupo 839">
    <path id="Trazado_14604" data-name="Trazado 14604" d="M2661.948,2895.743c.664.351,1.318.635,1.973.918q7.159,3.094,14.317,6.188c5.167,2.235,10.33,4.482,15.5,6.7a1.6,1.6,0,0,1,1.1,1.625c-.006.786,0,1.572,0,2.357q0,6.2,0,12.4,0,6.129,0,12.258,0,4.389,0,8.777a1.338,1.338,0,0,1-.87,1.313c-.665.293-1.325.6-1.989.892q-7.848,3.5-15.7,6.993-6.9,3.078-13.8,6.164a8.4,8.4,0,0,1-1.794.068q-8.351-3.729-16.7-7.457-7.358-3.28-14.723-6.545a1.624,1.624,0,0,1-1.108-1.651c.021-4.34.01-8.68.01-13.02v-16.465c0-2.007.008-4.014,0-6.021a1.581,1.581,0,0,1,1.139-1.706c.292-.1.567-.239.85-.362l12.79-5.53,14.655-6.339c1.156-.5,2.311-1,3.55-1.543C2660.942,2895.754,2662.081,2895.743,2661.948,2895.743Zm.846,63.652c.169-.06.238-.079.3-.108l16.771-7.482q6.007-2.68,12.018-5.349a.556.556,0,0,0,.391-.6q-.018-6.292-.012-12.584,0-10.009,0-20.018c0-.124-.019-.247-.031-.4a1.941,1.941,0,0,0-.227.063l-13.634,6.083q-7.593,3.387-15.191,6.765a.583.583,0,0,0-.39.639q.012,8.213.005,16.427,0,7.814-.007,15.629C2662.794,2958.753,2662.794,2959.039,2662.794,2959.395Zm-13.327-38.225c-.011.207-.024.337-.024.467q0,5.839-.008,11.677c0,1.27-.889,1.813-2.073,1.271q-4.2-1.921-8.4-3.849a1.422,1.422,0,0,1-.931-1.426c.016-.822,0-1.644,0-2.466q0-5.168.009-10.335c0-.255-.025-.45-.316-.578-2.244-.989-4.479-2-6.718-2.995a1.572,1.572,0,0,0-.279-.06v.432q0,7.271.006,14.542,0,9.012-.012,18.024a.533.533,0,0,0,.371.575q6.148,2.725,12.286,5.476l15.793,7.048c.31.138.623.267.992.424.014-.186.031-.313.031-.44q0-7.851,0-15.7,0-8.432.007-16.863a.583.583,0,0,0-.411-.626c-2.6-1.147-5.2-2.315-7.8-3.476C2651.182,2921.923,2650.36,2921.563,2649.467,2921.17Zm2.078-1.974-.012.116c.137.067.273.137.412.2q4.623,2.062,9.252,4.111a.864.864,0,0,0,.622-.007q4.547-2.005,9.082-4.039,8.878-3.957,17.756-7.915c.51-.227,1.013-.466,1.594-.733-.2-.106-.305-.177-.424-.229q-5.138-2.227-10.282-4.44a.768.768,0,0,0-.551.046q-7.766,3.63-15.522,7.278-4.882,2.294-9.761,4.594Zm-4.678,12.385v-.565c0-3.784.007-7.568-.007-11.353a1.472,1.472,0,0,1,.933-1.493c3-1.4,6-2.819,8.994-4.229q9.026-4.246,18.055-8.488c.418-.2.835-.4,1.3-.617a2.643,2.643,0,0,0-.3-.186c-1.592-.693-3.184-1.388-4.785-2.063a.831.831,0,0,0-.556.02c-.391.148-.763.344-1.142.522q-9.209,4.335-18.419,8.67-5.015,2.359-10.036,4.706a.423.423,0,0,0-.3.433q.009,5.731,0,11.461a.418.418,0,0,0,.291.439c1.291.583,2.574,1.182,3.861,1.775Zm-14.141-20.675c.213.11.308.166.408.21,2.17.969,4.345,1.931,6.509,2.912a.772.772,0,0,0,.723-.042q5.428-2.559,10.861-5.112l15.812-7.43c.18-.085.351-.185.559-.295a1.268,1.268,0,0,0-.194-.147c-1.886-.821-3.771-1.643-5.664-2.448a.748.748,0,0,0-.522.023c-2.006.853-4.007,1.721-6.007,2.586l-11.158,4.829-10,4.33C2633.637,2910.5,2633.228,2910.685,2632.727,2910.906Z" transform="translate(-2628.156 -2895.743)" fill="#383838"/>
  </g>
  <g id="Grupo_841" data-name="Grupo 841" transform="translate(29.542 33.374)">
    <line id="Línea_125" data-name="Línea 125" x1="0.065" y2="23.352" transform="translate(3.737 2.368)" fill="none" stroke="#41b6e6" stroke-miterlimit="10" stroke-width="2"/>
    <path id="Trazado_14605" data-name="Trazado 14605" d="M3.684,0,7.489,2.8,0,2.727Z" transform="matrix(1, -0.017, 0.017, 1, 0.065, 0.131)" fill="#41b6e6"/>
    <path id="Trazado_14606" data-name="Trazado 14606" d="M3.805,0,7.489,2.727,0,2.8Z" transform="translate(7.488 28.351) rotate(-179)" fill="#41b6e6"/>
  </g>
  <g id="Grupo_842" data-name="Grupo 842" transform="matrix(0.454, 0.891, -0.891, 0.454, 59.728, 42.665)">
    <line id="Línea_125-2" data-name="Línea 125" x1="0.065" y2="17.818" transform="translate(3.738 2.368)" fill="none" stroke="#41b6e6" stroke-miterlimit="10" stroke-width="2"/>
    <path id="Trazado_14605-2" data-name="Trazado 14605" d="M3.684,0,7.489,2.8,0,2.727Z" transform="matrix(1, -0.017, 0.017, 1, 0.065, 0.131)" fill="#41b6e6"/>
    <path id="Trazado_14606-2" data-name="Trazado 14606" d="M3.805,0,7.489,2.727,0,2.8Z" transform="translate(7.488 22.818) rotate(-179)" fill="#41b6e6"/>
  </g>
  <g id="Grupo_843" data-name="Grupo 843" transform="matrix(0.438, -0.899, 0.899, 0.438, 3.395, 49.794)">
    <line id="Línea_125-3" data-name="Línea 125" x1="0.065" y2="17.818" transform="translate(3.738 2.368)" fill="none" stroke="#41b6e6" stroke-miterlimit="10" stroke-width="2"/>
    <path id="Trazado_14605-3" data-name="Trazado 14605" d="M3.684,0,7.489,2.8,0,2.727Z" transform="matrix(1, -0.017, 0.017, 1, 0.065, 0.131)" fill="#41b6e6"/>
    <path id="Trazado_14606-3" data-name="Trazado 14606" d="M3.805,0,7.489,2.727,0,2.8Z" transform="translate(7.488 22.818) rotate(-179)" fill="#41b6e6"/>
  </g>
</svg>
