<svg xmlns="http://www.w3.org/2000/svg" width="60.508" height="66.684" viewBox="0 0 60.508 66.684">
  <g id="Grupo_856" data-name="Grupo 856" transform="translate(0 0)">
    <g id="Grupo_853" data-name="Grupo 853" transform="translate(0 14.149)">
      <path id="Trazado_14619" data-name="Trazado 14619" d="M290.238,289.362H246.5a8.46,8.46,0,0,1-8.383-8.516l.032-.345,6.567-35.341a8.457,8.457,0,0,1,8.381-8.332h29.816a8.457,8.457,0,0,1,8.38,8.312l7.332,35.513v.193A8.46,8.46,0,0,1,290.238,289.362Zm-48.458-8.356a4.758,4.758,0,0,0,4.715,4.633h43.743a4.759,4.759,0,0,0,4.715-4.615l-7.327-35.487v-.193a4.761,4.761,0,0,0-4.717-4.793H253.092a4.761,4.761,0,0,0-4.718,4.793l-.031.345Z" transform="translate(-238.112 -236.827)" fill="#383838"/>
    </g>
    <g id="Grupo_854" data-name="Grupo 854" transform="translate(21.538 0)">
      <path id="Trazado_14620" data-name="Trazado 14620" d="M275.519,233.829a8.715,8.715,0,1,1,8.715-8.715A8.724,8.724,0,0,1,275.519,233.829Zm0-13.966a5.251,5.251,0,1,0,5.251,5.251A5.257,5.257,0,0,0,275.519,219.863Z" transform="translate(-266.805 -216.4)" fill="#383838"/>
    </g>
    <g id="Grupo_855" data-name="Grupo 855" transform="translate(17.553 33.151)">
      <path id="Trazado_14621" data-name="Trazado 14621" d="M265.723,269.112l-2.156,2.214V274.8h-2.523V261.21h2.523v6.97l6.718-6.97h2.834l-5.708,6.077,6.057,7.513h-2.951Z" transform="translate(-261.044 -261.016)" fill="#383838"/>
      <path id="Trazado_14622" data-name="Trazado 14622" d="M289.624,267.763h2.388v5.417a7.6,7.6,0,0,1-2.447,1.281,9.379,9.379,0,0,1-2.873.446,7.748,7.748,0,0,1-3.747-.9,6.7,6.7,0,0,1-2.62-2.494,7.257,7.257,0,0,1,0-7.183,6.688,6.688,0,0,1,2.63-2.5,7.854,7.854,0,0,1,3.777-.9,8.24,8.24,0,0,1,3.105.563,6.1,6.1,0,0,1,2.35,1.65l-1.592,1.553a5.108,5.108,0,0,0-3.747-1.553,5.3,5.3,0,0,0-2.553.6,4.379,4.379,0,0,0-1.747,1.689,4.855,4.855,0,0,0-.631,2.485,4.776,4.776,0,0,0,.631,2.446,4.513,4.513,0,0,0,1.747,1.709,5.12,5.12,0,0,0,2.534.621,5.464,5.464,0,0,0,2.8-.7Z" transform="translate(-266.677 -260.93)" fill="#383838"/>
    </g>
  </g>
</svg>
